<?xml version="1.0" standalone="no"?>
<svg xmlns:xlink="http://www.w3.org/1999/xlink" id="wave" style="transform:rotate(180deg); transition: 0.3s" viewBox="0 0 1440 100" version="1.1" xmlns="http://www.w3.org/2000/svg"><defs><linearGradient id="sw-gradient-0" x1="0" x2="0" y1="1" y2="0"><stop stop-color="rgba(255, 249, 234, 1)" offset="0%"/><stop stop-color="rgba(255, 249, 234, 1)" offset="100%"/></linearGradient></defs><path style="transform:translate(0, 0px); opacity:1" fill="url(#sw-gradient-0)" d="M0,60L26.7,56.7C53.3,53,107,47,160,48.3C213.3,50,267,60,320,66.7C373.3,73,427,77,480,78.3C533.3,80,587,80,640,71.7C693.3,63,747,47,800,45C853.3,43,907,57,960,60C1013.3,63,1067,57,1120,46.7C1173.3,37,1227,23,1280,16.7C1333.3,10,1387,10,1440,11.7C1493.3,13,1547,17,1600,28.3C1653.3,40,1707,60,1760,66.7C1813.3,73,1867,67,1920,66.7C1973.3,67,2027,73,2080,68.3C2133.3,63,2187,47,2240,43.3C2293.3,40,2347,50,2400,58.3C2453.3,67,2507,73,2560,76.7C2613.3,80,2667,80,2720,66.7C2773.3,53,2827,27,2880,28.3C2933.3,30,2987,60,3040,66.7C3093.3,73,3147,57,3200,55C3253.3,53,3307,67,3360,68.3C3413.3,70,3467,60,3520,50C3573.3,40,3627,30,3680,26.7C3733.3,23,3787,27,3813,28.3L3840,30L3840,100L3813.3,100C3786.7,100,3733,100,3680,100C3626.7,100,3573,100,3520,100C3466.7,100,3413,100,3360,100C3306.7,100,3253,100,3200,100C3146.7,100,3093,100,3040,100C2986.7,100,2933,100,2880,100C2826.7,100,2773,100,2720,100C2666.7,100,2613,100,2560,100C2506.7,100,2453,100,2400,100C2346.7,100,2293,100,2240,100C2186.7,100,2133,100,2080,100C2026.7,100,1973,100,1920,100C1866.7,100,1813,100,1760,100C1706.7,100,1653,100,1600,100C1546.7,100,1493,100,1440,100C1386.7,100,1333,100,1280,100C1226.7,100,1173,100,1120,100C1066.7,100,1013,100,960,100C906.7,100,853,100,800,100C746.7,100,693,100,640,100C586.7,100,533,100,480,100C426.7,100,373,100,320,100C266.7,100,213,100,160,100C106.7,100,53,100,27,100L0,100Z"/></svg>